<?xml version="1.0" encoding="UTF-8"?>
<!DOCTYPE svg PUBLIC "-//W3C//DTD SVG 1.1//EN" "http://www.w3.org/Graphics/SVG/1.1/DTD/svg11.dtd">
<!-- Creator: CorelDRAW 2019 (64-Bit) -->
<svg xmlns="http://www.w3.org/2000/svg" xml:space="preserve" width="4in" height="4in" version="1.1" style="shape-rendering:geometricPrecision; text-rendering:geometricPrecision; image-rendering:optimizeQuality; fill-rule:evenodd; clip-rule:evenodd"
viewBox="0 0 4000 4000"
 xmlns:xlink="http://www.w3.org/1999/xlink">
 <defs>
  <style type="text/css">
   <![CDATA[
    .fil0 {fill:none}
    .fil1 {fill:white}
   ]]>
  </style>
 </defs>
 <g id="Layer_x0020_1">
  <metadata id="CorelCorpID_0Corel-Layer"/>
  <rect class="fil0" x="-21.91" y="-31.29" width="4000" height="4000"/>
  <path class="fil1" d="M1674.47 2624.36c-12.83,-7.06 -155.38,-244.41 -151.48,-263.5 6.09,-29.75 384.2,-655.15 452.01,-786.91 15.1,12.24 457.69,782.63 458.21,790.67 1.7,26.3 -137.25,222.92 -145.95,266.5l302.6 -0.4c31.91,-55.7 65.3,-110.87 96.73,-166.73 63.59,-113.02 67.9,-77.02 15.41,-168.05l-381.84 -661.83c-32.21,-56.81 -61.78,-106.19 -94.63,-163.48 -29.31,-51.11 -61.81,-113.78 -94.75,-164.33l-306.59 0.59c-129.76,219.46 -252.32,442.33 -382.09,661.46 -64.6,109.1 -126.49,221.46 -190.89,330.92 -16.19,27.52 -45.49,56.65 -27.52,87.98l141.87 243.82 609.39 -0.47c12.74,-11.86 150.94,-252.57 151.72,-262.09 1.94,-23.96 -128.36,-219.06 -145.29,-264.28 -8.03,5.86 -2.81,1 -9.49,8.53 -3.03,3.41 -2.55,2.99 -4.89,6.31l-215.71 374.57c-20.49,36.49 -52.13,97.35 -76.82,130.7z"/>
 </g>
</svg>
