<svg width="154" height="40" viewBox="0 0 154 40" fill="none" xmlns="http://www.w3.org/2000/svg" role="img" aria-labelledby="title">
  <title id="title">Abidii</title>
  <g transform="translate(4 4) scale(1.333333)">
    <path d="M4.47236 2.65342C5.67145 2.57469 9.75523 4.2603 10.823 5.07603C12.3335 6.23005 11.4908 7.00862 10.9308 8.49985C10.7925 8.87228 10.6734 9.2516 10.5742 9.63632C9.81636 12.6085 10.2257 17.048 12.6565 19.2638C13.3584 19.9032 14.2325 19.8152 15.1032 19.7102C15.1168 20.6349 15.1489 21.5564 15.1687 22.4801C15.1749 22.7685 15.1568 23.102 14.946 23.3088C14.763 23.3348 14.8241 23.3295 14.6259 23.2176C12.8374 22.0029 10.9428 20.8958 9.15311 19.6811C8.19411 19.0305 7.95541 18.9494 6.81014 18.8953C5.6943 18.8423 4.41584 18.6238 3.47964 17.9663C1.80129 16.7882 2.00824 15.0305 2.00797 13.2082L2.00945 9.49751L2.00935 6.93582C1.99991 4.93198 1.9128 3.0444 4.47236 2.65342Z" fill="#FBC21E"/>
    <path d="M20.9198 3.70813C21.6199 3.61434 21.9567 3.78586 21.98 4.54714C22.0038 5.32566 21.9947 6.10482 21.9944 6.88365L21.9953 11.0566L21.9971 13.8741C21.9972 15.2596 22.1026 16.443 21.0777 17.5416C19.7726 18.9403 17.7046 18.8306 15.9531 18.9663C15.4039 19.0087 14.8865 19.1567 14.3304 19.188C13.9465 18.9897 13.7687 18.8317 13.4608 18.5432C12.8468 17.8995 12.4131 17.1026 12.1186 16.2659C10.0616 10.4197 15.8874 5.45233 20.9198 3.70813Z" fill="#FBC21E"/>
    <path d="M20.7738 1C21.3099 1.21962 20.9388 2.29007 20.8024 2.71695C20.3328 4.18628 19.6108 3.59912 18.5346 4.08559C15.4756 5.46824 12.8463 7.2705 11.6267 10.5506C11.5832 10.6627 11.5382 10.7742 11.4915 10.8849L11.4668 10.85C11.8485 7.14028 13.6147 4.43273 16.9026 2.67061C18.182 1.98488 19.3739 1.41802 20.7738 1Z" fill="#FBC21E"/>
  </g>
  <text x="44" y="27.5" fill="#111827" font-family="Inter, Arial, sans-serif" font-size="24" font-weight="800" letter-spacing="0">Abidii</text>
</svg>
